<svg width="70" height="80" viewBox="0 0 70 80" fill="none" xmlns="http://www.w3.org/2000/svg">
<path fill-rule="evenodd" clip-rule="evenodd" d="M26.4051 0H16.8821V17.2913H26.4051V0ZM26.4051 19.4526H16.8821V36.7439H26.4051V19.4526ZM37.2777 36.7439V19.4526H68.4823C68.4823 19.4526 69.9999 24.7051 69.9999 28.0983C69.9999 31.4915 68.4823 36.7439 68.4823 36.7439H37.2777ZM26.4051 38.9055H16.8821V47.2061L6.17861 37.9492L0 44.7627L21.4403 63.3054L13.9999 67.5005L18.6596 75.3823L26.4051 71.0152V38.9055ZM37.2777 77.0024V38.9055H53.4322C53.4322 38.9055 54.5072 44.158 54.5072 47.5512C54.5072 50.9443 53.4322 56.1968 53.4322 56.1968H52.5679L52.5976 56.2471L37.3054 64.8693L46.9225 73.1866L40.7438 80L37.2777 77.0024ZM37.2777 17.2913V0H53.4322C53.4322 0 54.5072 5.25248 54.5072 8.64565C54.5072 12.0388 53.4322 17.2913 53.4322 17.2913H37.2777Z" fill="url(#paint0_linear_85_3)"/>
<defs>
<linearGradient id="paint0_linear_85_3" x1="35" y1="0" x2="35" y2="80" gradientUnits="userSpaceOnUse">
<stop stop-color="#EFFA7A"/>
<stop offset="1" stop-color="#7AFAF2"/>
</linearGradient>
</defs>
</svg>
